# xmcd
#
# Track frame offsets: 
#        150
#        22242
#        54696
#        77829
#        100969
#        124034
#        147634
#        175445
#        199810
#        200564
#
# Disc length: 2681 seconds
#
# Revision: 0
# Processed by: cddbd v1.5.2PL0 Copyright (c) Steve Scherf et al.
# Submitted via: ExactAudioCopyFreeDBPlugin 1.0
#
DISCID=9b0a770a
DTITLE=John Verity - Say Why?
DYEAR=2007
DGENRE=Blues
TTITLE0=BB King
TTITLE1=Prove Your Love
TTITLE2=This Old Dog
TTITLE3=You Are The One
TTITLE4=Say Why
TTITLE5=Down The Road
TTITLE6=Walkin The Blues
TTITLE7=Too Hot To Hug
TTITLE8=Hmmm 1
TTITLE9=Hmmm 2
EXTD=
EXTT0=
EXTT1=
EXTT2=
EXTT3=
EXTT4=
EXTT5=
EXTT6=
EXTT7=
EXTT8=
EXTT9=
PLAYORDER=
